<?xml version="1.0" encoding="utf-8"?>
<!-- Generator: Adobe Illustrator 15.0.2, SVG Export Plug-In . SVG Version: 6.00 Build 0)  -->
<!DOCTYPE svg PUBLIC "-//W3C//DTD SVG 1.1//EN" "http://www.w3.org/Graphics/SVG/1.1/DTD/svg11.dtd">
<svg version="1.1" id="Layer_1" xmlns="http://www.w3.org/2000/svg" xmlns:xlink="http://www.w3.org/1999/xlink" x="0px" y="0px"
	 width="28px" height="28px" viewBox="-1 0 28 28" enable-background="new -1 0 28 28" xml:space="preserve">
<path d="M2.786,25.143h4.179v-4.179H2.786V25.143z M7.894,25.143h4.643v-4.179H7.894V25.143z M2.786,20.036h4.179v-4.644H2.786
	V20.036z M7.894,20.036h4.643v-4.644H7.894V20.036z M2.786,14.464h4.179v-4.179H2.786V14.464z M13.464,25.143h4.644v-4.179h-4.644
	V25.143z M7.894,14.464h4.643v-4.179H7.894V14.464z M19.036,25.143h4.178v-4.179h-4.178V25.143z M13.464,20.036h4.644v-4.644h-4.644
	V20.036z M8.357,7.5V3.321c0-0.125-0.045-0.235-0.137-0.327c-0.093-0.092-0.2-0.138-0.327-0.138h-0.93
	c-0.125,0-0.233,0.046-0.326,0.138C6.545,3.086,6.5,3.195,6.5,3.321V7.5c0,0.125,0.046,0.235,0.138,0.327
	c0.092,0.092,0.2,0.138,0.326,0.137h0.93c0.125,0,0.233-0.046,0.327-0.137C8.312,7.735,8.357,7.626,8.357,7.5z M19.036,20.036h4.178
	v-4.644h-4.178V20.036z M13.464,14.464h4.644v-4.179h-4.644V14.464z M19.036,14.464h4.178v-4.179h-4.178V14.464z M19.5,7.5V3.321
	c0-0.125-0.045-0.235-0.139-0.327c-0.09-0.092-0.198-0.138-0.325-0.138h-0.929c-0.125,0-0.234,0.046-0.328,0.138
	c-0.092,0.091-0.137,0.201-0.137,0.327V7.5c0,0.125,0.045,0.235,0.137,0.327c0.092,0.092,0.201,0.138,0.328,0.137h0.929
	c0.125,0,0.233-0.046,0.325-0.137C19.455,7.735,19.5,7.626,19.5,7.5z M25.07,6.571v18.572c0,0.502-0.184,0.938-0.551,1.306
	S23.717,27,23.214,27H2.786c-0.503,0-0.938-0.184-1.305-0.552S0.93,25.645,0.93,25.143V6.571c0-0.502,0.184-0.938,0.552-1.306
	C1.85,4.898,2.283,4.714,2.786,4.714h1.857V3.321c0-0.638,0.227-1.185,0.681-1.64C5.779,1.227,6.326,1,6.964,1h0.93
	c0.638,0,1.185,0.227,1.64,0.682c0.455,0.454,0.682,1.001,0.682,1.64v1.393h5.572V3.321c0-0.638,0.227-1.185,0.682-1.64
	C16.921,1.227,17.469,1,18.107,1h0.929c0.638,0,1.185,0.227,1.639,0.682c0.456,0.454,0.683,1.001,0.683,1.64v1.393h1.856
	c0.503,0,0.938,0.184,1.308,0.551C24.889,5.634,25.07,6.069,25.07,6.571z"/>
</svg>
