<?xml version="1.0" encoding="utf-8"?>
<!-- Generator: Adobe Illustrator 15.0.2, SVG Export Plug-In . SVG Version: 6.00 Build 0)  -->
<!DOCTYPE svg PUBLIC "-//W3C//DTD SVG 1.1//EN" "http://www.w3.org/Graphics/SVG/1.1/DTD/svg11.dtd">
<svg version="1.1" id="Layer_1" xmlns="http://www.w3.org/2000/svg" xmlns:xlink="http://www.w3.org/1999/xlink" x="0px" y="0px"
	 width="28px" height="28px" viewBox="0 0 28 28" enable-background="new 0 0 28 28" xml:space="preserve">
<path d="M27,7.927c0,0.448-0.157,0.828-0.471,1.141L12.104,23.494c-0.313,0.312-0.694,0.47-1.141,0.47s-0.826-0.157-1.14-0.47
	L1.47,15.141C1.156,14.828,1,14.447,1,14s0.156-0.827,0.47-1.14l2.281-2.281c0.313-0.313,0.694-0.47,1.141-0.47
	s0.826,0.157,1.14,0.47l4.932,4.947l11.004-11.02c0.313-0.313,0.693-0.471,1.14-0.471s0.827,0.157,1.141,0.471l2.281,2.281
	c0.313,0.312,0.47,0.692,0.47,1.14H27z"/>
</svg>
