<?xml version="1.0" encoding="utf-8"?>
<!-- Generator: Adobe Illustrator 15.0.2, SVG Export Plug-In . SVG Version: 6.00 Build 0)  -->
<!DOCTYPE svg PUBLIC "-//W3C//DTD SVG 1.1//EN" "http://www.w3.org/Graphics/SVG/1.1/DTD/svg11.dtd">
<svg version="1.1" id="Layer_1" xmlns="http://www.w3.org/2000/svg" xmlns:xlink="http://www.w3.org/1999/xlink" x="0px" y="0px"
	 width="28px" height="28px" viewBox="0 0 28 28" enable-background="new 0 0 28 28" xml:space="preserve">
<path d="M16.166,8.041v7.584c0,0.159-0.051,0.288-0.153,0.39c-0.102,0.101-0.231,0.152-0.389,0.152h-5.417
	c-0.158,0-0.288-0.051-0.389-0.152c-0.101-0.102-0.152-0.231-0.153-0.39v-1.083c0-0.159,0.051-0.288,0.153-0.389
	C9.92,14.052,10.049,14,10.207,14h3.792V8.041c0-0.158,0.051-0.288,0.153-0.389C14.253,7.551,14.383,7.5,14.541,7.5h1.083
	c0.157,0,0.288,0.051,0.389,0.153C16.114,7.754,16.165,7.883,16.166,8.041z M23.208,14c0-1.67-0.413-3.21-1.235-4.622
	c-0.825-1.411-1.943-2.529-3.353-3.352c-1.411-0.824-2.951-1.236-4.622-1.236s-3.211,0.412-4.622,1.236S6.848,7.968,6.024,9.378
	S4.788,12.329,4.788,14c0,1.672,0.412,3.212,1.236,4.621c0.824,1.411,1.941,2.528,3.352,3.353c1.411,0.825,2.951,1.237,4.622,1.236
	s3.211-0.412,4.622-1.236c1.409-0.823,2.527-1.94,3.353-3.353C22.795,17.21,23.208,15.67,23.208,14z M27,14
	c0,2.359-0.581,4.535-1.743,6.526s-2.738,3.567-4.732,4.731C18.533,26.419,16.358,27.001,14,27s-4.533-0.582-6.525-1.742
	c-1.992-1.162-3.569-2.739-4.731-4.731C1.582,18.532,1,16.357,1,14s0.582-4.533,1.743-6.525c1.162-1.993,2.739-3.57,4.731-4.731
	C9.467,1.582,11.642,1,14,1s4.533,0.581,6.524,1.743c1.994,1.163,3.57,2.74,4.732,4.731S27,11.641,27,14z"/>
</svg>
