<?xml version="1.0" encoding="utf-8"?>
<!-- Generator: Adobe Illustrator 15.0.2, SVG Export Plug-In . SVG Version: 6.00 Build 0)  -->
<!DOCTYPE svg PUBLIC "-//W3C//DTD SVG 1.1//EN" "http://www.w3.org/Graphics/SVG/1.1/DTD/svg11.dtd">
<svg version="1.1" id="Layer_1" xmlns="http://www.w3.org/2000/svg" xmlns:xlink="http://www.w3.org/1999/xlink" x="0px" y="0px"
	 width="28px" height="28px" viewBox="0 0 28 28" enable-background="new 0 0 28 28" xml:space="preserve">
<path d="M27,21.923c0,0.582-0.205,1.079-0.613,1.486l-2.978,2.977C23,26.795,22.505,27,21.923,27c-0.583,0-1.077-0.205-1.487-0.614
	L14,19.951l-6.436,6.435C7.155,26.795,6.66,27,6.078,27C5.495,27,5,26.795,4.591,26.386l-2.977-2.977C1.205,23,1,22.505,1,21.923
	c0-0.583,0.205-1.079,0.614-1.487L8.048,14L1.614,7.565C1.205,7.157,1,6.66,1,6.078C1,5.495,1.205,5,1.614,4.591l2.977-2.977
	C5,1.205,5.495,1,6.078,1C6.66,1,7.155,1.205,7.564,1.614L14,8.048l6.436-6.434C20.846,1.205,21.34,1,21.923,1
	C22.505,1,23,1.205,23.409,1.614l2.978,2.977C26.795,5,27,5.495,27,6.078s-0.205,1.079-0.613,1.488L19.951,14l6.436,6.436
	C26.795,20.844,27,21.34,27,21.923z"/>
</svg>
