<?xml version="1.0" encoding="utf-8"?>
<!-- Generator: Adobe Illustrator 15.0.2, SVG Export Plug-In . SVG Version: 6.00 Build 0)  -->
<!DOCTYPE svg PUBLIC "-//W3C//DTD SVG 1.1//EN" "http://www.w3.org/Graphics/SVG/1.1/DTD/svg11.dtd">
<svg version="1.1" id="Layer_1" xmlns="http://www.w3.org/2000/svg" xmlns:xlink="http://www.w3.org/1999/xlink" x="0px" y="0px"
	 width="28px" height="28px" viewBox="-1 0 28 28" enable-background="new -1 0 28 28" xml:space="preserve">
<path d="M20,23c0-0.271-0.1-0.505-0.297-0.703C19.505,22.1,19.271,22,19,22s-0.505,0.1-0.703,0.297C18.1,22.495,18,22.729,18,23
	s0.1,0.505,0.297,0.703C18.495,23.9,18.729,24,19,24s0.505-0.1,0.703-0.297C19.9,23.505,20,23.271,20,23z M24,23
	c0-0.271-0.1-0.505-0.297-0.703C23.505,22.1,23.271,22,23,22s-0.505,0.1-0.703,0.297C22.1,22.495,22,22.729,22,23
	s0.1,0.505,0.297,0.703C22.495,23.9,22.729,24,23,24s0.505-0.1,0.703-0.297C23.9,23.505,24,23.271,24,23z M26,19.5v5
	c0,0.416-0.146,0.771-0.438,1.062C25.27,25.854,24.916,26,24.5,26h-23c-0.417,0-0.771-0.146-1.062-0.438
	C0.146,25.27,0,24.916,0,24.5v-5c0-0.416,0.146-0.771,0.438-1.062C0.73,18.146,1.084,18,1.5,18h7.266l2.109,2.125
	C11.479,20.709,12.188,21,13,21s1.521-0.291,2.125-0.875L17.25,18h7.25c0.416,0,0.771,0.146,1.062,0.438
	C25.854,18.73,26,19.084,26,19.5z M20.922,10.609c0.178,0.427,0.104,0.792-0.219,1.094l-7,7C13.516,18.9,13.281,19,13,19
	s-0.516-0.1-0.703-0.297l-7-7c-0.323-0.302-0.396-0.667-0.219-1.094C5.255,10.203,5.562,10,6,10h4V3
	c0-0.271,0.099-0.505,0.297-0.703C10.495,2.099,10.729,2,11,2h4c0.271,0,0.505,0.099,0.703,0.297C15.9,2.495,16,2.729,16,3v7h4
	C20.438,10,20.744,10.203,20.922,10.609z"/>
</svg>
