<?xml version="1.0" encoding="utf-8"?>
<!-- Generator: Adobe Illustrator 15.0.2, SVG Export Plug-In . SVG Version: 6.00 Build 0)  -->
<!DOCTYPE svg PUBLIC "-//W3C//DTD SVG 1.1//EN" "http://www.w3.org/Graphics/SVG/1.1/DTD/svg11.dtd">
<svg version="1.1" id="Layer_1" xmlns="http://www.w3.org/2000/svg" xmlns:xlink="http://www.w3.org/1999/xlink" x="0px" y="0px"
	 width="28px" height="28px" viewBox="0 0 28 28" enable-background="new 0 0 28 28" xml:space="preserve">
<path d="M8.429,19.75v2.784c0,0.388-0.136,0.717-0.407,0.986c-0.271,0.271-0.6,0.405-0.986,0.405H2.393
	c-0.387,0-0.716-0.136-0.986-0.405C1.136,23.25,1,22.922,1,22.534V19.75c0-0.388,0.136-0.716,0.407-0.987
	c0.271-0.27,0.6-0.406,0.986-0.406h4.643c0.387,0,0.715,0.139,0.986,0.406C8.292,19.034,8.428,19.362,8.429,19.75z M8.429,12.321
	v2.786c0,0.389-0.136,0.717-0.407,0.987S7.422,16.5,7.036,16.5H2.393c-0.387,0-0.716-0.138-0.986-0.406
	C1.136,15.821,1,15.493,1,15.106v-2.786c0-0.387,0.136-0.715,0.407-0.986s0.6-0.406,0.986-0.407h4.643
	c0.387,0,0.715,0.135,0.986,0.407C8.292,11.606,8.428,11.935,8.429,12.321z M17.714,19.75v2.784c0,0.388-0.136,0.717-0.405,0.986
	c-0.271,0.271-0.601,0.405-0.985,0.405H11.68c-0.387,0-0.716-0.136-0.986-0.405c-0.271-0.271-0.406-0.601-0.407-0.986V19.75
	c0-0.388,0.136-0.716,0.407-0.987c0.271-0.27,0.6-0.406,0.986-0.406h4.643c0.387,0,0.716,0.139,0.985,0.406
	C17.578,19.034,17.714,19.362,17.714,19.75z M8.429,4.893v2.786c0,0.387-0.136,0.715-0.407,0.986s-0.6,0.406-0.986,0.407H2.393
	c-0.387,0-0.716-0.135-0.986-0.407C1.136,8.393,1,8.065,1,7.678V4.893c0-0.387,0.136-0.716,0.407-0.986s0.6-0.406,0.986-0.407h4.643
	c0.387,0,0.715,0.136,0.986,0.407C8.292,4.177,8.428,4.506,8.429,4.893z M17.714,12.321v2.786c0,0.389-0.136,0.717-0.405,0.987
	c-0.271,0.271-0.601,0.406-0.985,0.406H11.68c-0.387,0-0.716-0.138-0.986-0.406c-0.271-0.272-0.406-0.601-0.407-0.987v-2.786
	c0-0.387,0.136-0.715,0.407-0.986s0.6-0.406,0.986-0.407h4.643c0.387,0,0.716,0.135,0.985,0.407
	C17.578,11.606,17.714,11.935,17.714,12.321z M27,19.75v2.784c0,0.388-0.137,0.717-0.406,0.986
	c-0.271,0.271-0.601,0.405-0.986,0.405h-4.644c-0.386,0-0.715-0.136-0.985-0.405c-0.271-0.271-0.405-0.601-0.405-0.986V19.75
	c0-0.388,0.136-0.716,0.405-0.987c0.271-0.27,0.602-0.406,0.985-0.406h4.644c0.388,0,0.717,0.139,0.986,0.406
	C26.863,19.034,27,19.362,27,19.75z M17.714,4.893v2.786c0,0.387-0.136,0.715-0.405,0.986c-0.271,0.271-0.601,0.406-0.985,0.407
	H11.68c-0.387,0-0.716-0.135-0.986-0.407c-0.271-0.271-0.406-0.6-0.407-0.986V4.893c0-0.387,0.136-0.716,0.407-0.986
	s0.6-0.406,0.986-0.407h4.643c0.387,0,0.716,0.136,0.985,0.407S17.714,4.506,17.714,4.893z M27,12.321v2.786
	c0,0.389-0.137,0.717-0.406,0.987c-0.271,0.271-0.601,0.406-0.986,0.406h-4.644c-0.386,0-0.715-0.138-0.985-0.406
	c-0.271-0.272-0.405-0.601-0.405-0.987v-2.786c0-0.387,0.136-0.715,0.405-0.986c0.271-0.271,0.602-0.406,0.985-0.407h4.644
	c0.388,0,0.717,0.135,0.986,0.407C26.863,11.606,27,11.935,27,12.321z M27,4.893v2.786c0,0.387-0.137,0.715-0.406,0.986
	c-0.271,0.271-0.601,0.406-0.986,0.407h-4.644c-0.386,0-0.715-0.135-0.985-0.407c-0.271-0.271-0.405-0.6-0.405-0.986V4.893
	c0-0.387,0.136-0.716,0.405-0.986C20.25,3.636,20.58,3.501,20.964,3.5h4.644c0.388,0,0.717,0.136,0.986,0.407
	C26.863,4.177,27,4.506,27,4.893z"/>
</svg>
