<?xml version="1.0" encoding="utf-8"?>
<!-- Generator: Adobe Illustrator 15.0.2, SVG Export Plug-In . SVG Version: 6.00 Build 0)  -->
<!DOCTYPE svg PUBLIC "-//W3C//DTD SVG 1.1//EN" "http://www.w3.org/Graphics/SVG/1.1/DTD/svg11.dtd">
<svg version="1.1" id="Layer_1" xmlns="http://www.w3.org/2000/svg" xmlns:xlink="http://www.w3.org/1999/xlink" x="0px" y="0px"
	 width="28px" height="28px" viewBox="0 0 28 28" enable-background="new 0 0 28 28" xml:space="preserve">
<path d="M22.288,15.572v7.738c0,0.277-0.104,0.521-0.308,0.727c-0.205,0.204-0.445,0.307-0.727,0.307h-6.189v-6.191h-4.129v6.191
	h-6.19c-0.279,0-0.521-0.103-0.726-0.307c-0.204-0.205-0.306-0.447-0.306-0.727v-7.738c0-0.012,0.002-0.028,0.008-0.049
	c0.005-0.021,0.009-0.039,0.009-0.049L13,7.832l9.271,7.643C22.282,15.496,22.288,15.527,22.288,15.572z M25.887,14.459l-1,1.193
	c-0.089,0.098-0.201,0.154-0.341,0.178h-0.049c-0.142,0-0.253-0.038-0.338-0.112L13,6.414L1.841,15.718
	c-0.129,0.087-0.258,0.122-0.387,0.112c-0.14-0.021-0.252-0.08-0.339-0.178l-1-1.193c-0.086-0.107-0.124-0.233-0.113-0.378
	c0.011-0.146,0.07-0.261,0.178-0.347l11.592-9.658c0.345-0.28,0.752-0.419,1.227-0.419c0.473,0,0.882,0.14,1.227,0.419l3.935,3.289
	V4.22c0-0.15,0.049-0.274,0.146-0.37c0.096-0.096,0.221-0.146,0.369-0.146h3.098c0.15,0,0.273,0.048,0.371,0.146
	c0.097,0.097,0.146,0.22,0.146,0.37v6.579l3.532,2.935c0.105,0.086,0.166,0.202,0.177,0.347
	C26.009,14.226,25.973,14.352,25.887,14.459L25.887,14.459z"/>
</svg>
