<?xml version="1.0" encoding="utf-8"?>
<!-- Generator: Adobe Illustrator 15.0.2, SVG Export Plug-In . SVG Version: 6.00 Build 0)  -->
<!DOCTYPE svg PUBLIC "-//W3C//DTD SVG 1.1//EN" "http://www.w3.org/Graphics/SVG/1.1/DTD/svg11.dtd">
<svg version="1.1" id="Layer_1" xmlns="http://www.w3.org/2000/svg" xmlns:xlink="http://www.w3.org/1999/xlink" x="0px" y="0px"
	 width="28px" height="28px" viewBox="0 0 28 28" enable-background="new 0 0 28 28" xml:space="preserve">
<path d="M27,21.583v2.167c0,0.293-0.107,0.547-0.32,0.762c-0.216,0.215-0.47,0.321-0.763,0.321H2.083
	c-0.293,0-0.547-0.106-0.762-0.321C1.107,24.297,1,24.043,1,23.75v-2.167c0-0.293,0.107-0.547,0.322-0.763
	c0.214-0.213,0.468-0.32,0.761-0.32h23.833c0.293,0,0.547,0.107,0.762,0.32C26.893,21.036,27,21.29,27,21.583z M27,12.917v2.167
	c0,0.293-0.107,0.547-0.32,0.762c-0.216,0.215-0.47,0.322-0.763,0.322H2.083c-0.293,0-0.547-0.107-0.762-0.322
	C1.107,15.63,1,15.376,1,15.083v-2.167c0-0.293,0.107-0.547,0.322-0.762c0.214-0.214,0.468-0.321,0.762-0.321h23.833
	c0.293,0,0.547,0.107,0.763,0.321C26.893,12.37,27,12.624,27,12.917z M27,4.25v2.167c0,0.293-0.107,0.547-0.32,0.762
	C26.464,7.393,26.21,7.5,25.917,7.5H2.083c-0.293,0-0.547-0.107-0.762-0.322C1.106,6.963,1,6.71,1,6.417V4.25
	c0-0.293,0.107-0.547,0.322-0.762C1.536,3.274,1.79,3.167,2.083,3.167h23.833c0.293,0,0.547,0.107,0.762,0.322
	C26.893,3.703,27,3.957,27,4.25z"/>
</svg>
