<?xml version="1.0" encoding="utf-8"?>
<!-- Generator: Adobe Illustrator 15.0.2, SVG Export Plug-In . SVG Version: 6.00 Build 0)  -->
<!DOCTYPE svg PUBLIC "-//W3C//DTD SVG 1.1//EN" "http://www.w3.org/Graphics/SVG/1.1/DTD/svg11.dtd">
<svg version="1.1" id="Layer_1" xmlns="http://www.w3.org/2000/svg" xmlns:xlink="http://www.w3.org/1999/xlink" x="0px" y="0px"
	 width="28px" height="28px" viewBox="0 0 28 28" enable-background="new 0 0 28 28" xml:space="preserve">
<path d="M7.229,24.805l1.562-1.562L4.758,19.21l-1.562,1.562v1.836h2.197v2.197H7.229L7.229,24.805z M16.205,8.877
	c0-0.252-0.125-0.378-0.377-0.378c-0.114,0-0.213,0.04-0.292,0.12l-9.302,9.303c-0.08,0.079-0.12,0.178-0.12,0.291
	c0,0.252,0.125,0.378,0.377,0.378c0.114,0,0.212-0.04,0.292-0.12l9.301-9.301C16.166,9.09,16.205,8.992,16.205,8.877z M15.277,5.582
	l7.141,7.14L8.139,27H1v-7.141L15.277,5.582z M27,7.229c0,0.606-0.211,1.121-0.635,1.545l-2.85,2.849l-7.14-7.139l2.849-2.832
	C19.639,1.217,20.152,1,20.771,1c0.604,0,1.125,0.217,1.562,0.652l4.033,4.016C26.789,6.114,27,6.634,27,7.229z"/>
</svg>
