<?xml version="1.0" encoding="utf-8"?>
<!-- Generator: Adobe Illustrator 15.0.2, SVG Export Plug-In . SVG Version: 6.00 Build 0)  -->
<!DOCTYPE svg PUBLIC "-//W3C//DTD SVG 1.1//EN" "http://www.w3.org/Graphics/SVG/1.1/DTD/svg11.dtd">
<svg version="1.1" id="Layer_1" xmlns="http://www.w3.org/2000/svg" xmlns:xlink="http://www.w3.org/1999/xlink" x="0px" y="0px"
	 width="28px" height="28px" viewBox="0 0 28 28" enable-background="new 0 0 28 28" xml:space="preserve">
<path d="M21.583,15.083v-2.167c0-0.293-0.108-0.547-0.321-0.762c-0.215-0.214-0.469-0.322-0.763-0.322h-4.333V7.5
	c0-0.293-0.107-0.547-0.322-0.762c-0.215-0.214-0.469-0.322-0.762-0.322h-2.167c-0.293,0-0.547,0.107-0.762,0.322
	c-0.214,0.215-0.322,0.469-0.322,0.762v4.333H7.499c-0.293,0-0.547,0.107-0.762,0.322c-0.214,0.215-0.322,0.469-0.322,0.762v2.167
	c0,0.294,0.107,0.548,0.322,0.762s0.469,0.322,0.762,0.322h4.333v4.334c0,0.293,0.107,0.547,0.322,0.762
	c0.215,0.213,0.469,0.321,0.762,0.321h2.167c0.293,0,0.547-0.108,0.762-0.321c0.215-0.215,0.322-0.469,0.322-0.762v-4.334h4.333
	c0.294,0,0.548-0.108,0.763-0.322C21.475,15.631,21.583,15.377,21.583,15.083z M27,14c0,2.359-0.581,4.535-1.743,6.526
	s-2.738,3.567-4.732,4.731C18.533,26.419,16.358,27.001,14,27s-4.533-0.582-6.525-1.742c-1.992-1.162-3.569-2.739-4.731-4.731
	C1.581,18.532,1,16.357,1,14s0.581-4.533,1.743-6.525s2.739-3.57,4.731-4.731C9.467,1.582,11.642,1,14,1s4.533,0.581,6.524,1.743
	c1.994,1.163,3.57,2.74,4.732,4.731S27,11.641,27,14z"/>
</svg>
