<?xml version="1.0" encoding="utf-8"?>
<!-- Generator: Adobe Illustrator 15.0.2, SVG Export Plug-In . SVG Version: 6.00 Build 0)  -->
<!DOCTYPE svg PUBLIC "-//W3C//DTD SVG 1.1//EN" "http://www.w3.org/Graphics/SVG/1.1/DTD/svg11.dtd">
<svg version="1.1" id="Layer_1" xmlns="http://www.w3.org/2000/svg" xmlns:xlink="http://www.w3.org/1999/xlink" x="0px" y="0px"
	 width="28px" height="28px" viewBox="-3 0 28 28" enable-background="new -3 0 28 28" xml:space="preserve">
<path d="M24,12.227v3.545c0,0.492-0.173,0.911-0.517,1.256c-0.347,0.344-0.765,0.518-1.256,0.518h-7.682v7.682
	c0,0.491-0.174,0.91-0.518,1.256C13.683,26.827,13.265,27,12.772,27H9.227c-0.492,0-0.91-0.173-1.255-0.517
	c-0.345-0.347-0.517-0.765-0.518-1.256v-7.682h-7.682c-0.493,0-0.911-0.174-1.255-0.518C-1.827,16.683-2,16.265-2,15.772v-3.545
	c0-0.492,0.172-0.91,0.518-1.255s0.764-0.517,1.255-0.518h7.682V2.773c0-0.493,0.172-0.911,0.518-1.255C8.317,1.173,8.736,1,9.227,1
	h3.545c0.492,0,0.911,0.172,1.256,0.518c0.344,0.345,0.518,0.764,0.518,1.255v7.682h7.682c0.491,0,0.91,0.172,1.256,0.518
	C23.827,11.317,24,11.736,24,12.227z"/>
</svg>
