<?xml version="1.0" encoding="utf-8"?>
<!-- Generator: Adobe Illustrator 15.0.2, SVG Export Plug-In . SVG Version: 6.00 Build 0)  -->
<!DOCTYPE svg PUBLIC "-//W3C//DTD SVG 1.1//EN" "http://www.w3.org/Graphics/SVG/1.1/DTD/svg11.dtd">
<svg version="1.1" id="Layer_1" xmlns="http://www.w3.org/2000/svg" xmlns:xlink="http://www.w3.org/1999/xlink" x="0px" y="0px"
	 width="28px" height="28px" viewBox="0 0 28 28" enable-background="new 0 0 28 28" xml:space="preserve">
<path d="M18.999,13c0-1.927-0.687-3.576-2.056-4.945C15.574,6.685,13.925,6,11.999,6S8.424,6.685,7.054,8.056
	C5.684,9.426,4.999,11.075,4.999,13s0.685,3.574,2.055,4.945C8.424,19.316,10.072,20,11.999,20c1.927,0,3.575-0.686,4.944-2.055
	S18.999,14.928,18.999,13z M26.999,26c0,0.541-0.198,1.01-0.595,1.406C26.009,27.803,25.54,28,24.999,28
	c-0.562,0-1.031-0.197-1.406-0.594l-5.358-5.344C16.369,23.354,14.292,24,12,24c-1.489,0-2.914-0.289-4.273-0.867
	s-2.531-1.359-3.516-2.344c-0.984-0.986-1.766-2.158-2.344-3.518C1.289,15.912,1,14.489,1,13s0.289-2.914,0.867-4.273
	c0.578-1.36,1.36-2.532,2.344-3.517c0.985-0.984,2.157-1.766,3.516-2.344C9.086,2.289,10.511,2,12,2s2.913,0.289,4.271,0.867
	c1.358,0.578,2.53,1.359,3.518,2.344c0.984,0.985,1.768,2.157,2.344,3.516C22.711,10.086,23,11.51,23,13
	c0,2.292-0.646,4.37-1.938,6.232l5.357,5.358c0.389,0.388,0.58,0.854,0.58,1.407L26.999,26z"/>
</svg>
