<?xml version="1.0" encoding="utf-8"?>
<!-- Generator: Adobe Illustrator 15.0.2, SVG Export Plug-In . SVG Version: 6.00 Build 0)  -->
<!DOCTYPE svg PUBLIC "-//W3C//DTD SVG 1.1//EN" "http://www.w3.org/Graphics/SVG/1.1/DTD/svg11.dtd">
<svg version="1.1" id="Layer_1" xmlns="http://www.w3.org/2000/svg" xmlns:xlink="http://www.w3.org/1999/xlink" x="0px" y="0px"
	 width="28px" height="28px" viewBox="0 0 28 28" enable-background="new 0 0 28 28" xml:space="preserve">
<path d="M18.333,13.999c0-1.196-0.423-2.217-1.271-3.064c-0.847-0.846-1.867-1.27-3.062-1.27c-1.196,0-2.217,0.423-3.063,1.27
	c-0.847,0.847-1.27,1.868-1.27,3.064c0,1.194,0.423,2.218,1.27,3.063c0.846,0.847,1.868,1.27,3.063,1.27
	c1.195,0,2.217-0.423,3.062-1.27C17.91,16.217,18.333,15.193,18.333,13.999z M27,12.154v3.758c0,0.135-0.045,0.264-0.137,0.389
	c-0.09,0.125-0.202,0.197-0.338,0.221l-3.131,0.476c-0.218,0.608-0.438,1.123-0.66,1.54c0.396,0.564,0.998,1.344,1.811,2.336
	c0.112,0.136,0.17,0.275,0.17,0.423s-0.051,0.277-0.152,0.392c-0.305,0.418-0.861,1.024-1.676,1.828
	c-0.812,0.801-1.344,1.2-1.594,1.2c-0.133,0-0.281-0.052-0.438-0.151l-2.336-1.828c-0.498,0.259-1.014,0.475-1.541,0.644
	c-0.184,1.534-0.347,2.584-0.49,3.147c-0.079,0.314-0.281,0.476-0.609,0.476h-3.758c-0.158,0-0.297-0.049-0.415-0.146
	c-0.119-0.097-0.183-0.217-0.195-0.362l-0.475-3.115c-0.553-0.181-1.061-0.389-1.523-0.626l-2.387,1.812
	c-0.112,0.102-0.253,0.15-0.423,0.15c-0.158,0-0.299-0.062-0.424-0.188c-1.422-1.285-2.353-2.233-2.793-2.844
	c-0.079-0.111-0.118-0.242-0.118-0.391c0-0.134,0.045-0.264,0.135-0.388c0.169-0.237,0.457-0.612,0.863-1.126
	c0.407-0.514,0.711-0.911,0.915-1.194c-0.305-0.562-0.536-1.121-0.694-1.676L1.49,16.454c-0.146-0.022-0.265-0.093-0.355-0.211
	C1.045,16.125,1,15.992,1,15.846v-3.759c0-0.135,0.045-0.265,0.136-0.389c0.09-0.124,0.197-0.197,0.321-0.22l3.148-0.475
	c0.158-0.519,0.378-1.038,0.66-1.557C4.813,8.804,4.209,8.025,3.454,7.111c-0.113-0.134-0.17-0.27-0.17-0.406
	c0-0.113,0.051-0.242,0.153-0.389C3.73,5.91,4.286,5.303,5.104,4.496c0.818-0.808,1.352-1.211,1.6-1.21
	c0.146,0,0.293,0.056,0.439,0.169L9.48,5.266c0.497-0.259,1.01-0.474,1.541-0.644c0.18-1.535,0.344-2.584,0.491-3.148
	c0.079-0.315,0.281-0.473,0.609-0.473h3.758c0.157,0,0.297,0.048,0.416,0.144c0.117,0.097,0.182,0.218,0.193,0.365l0.475,3.114
	c0.553,0.181,1.061,0.389,1.523,0.626l2.404-1.811c0.102-0.102,0.234-0.153,0.404-0.153c0.146,0,0.287,0.056,0.423,0.169
	c1.455,1.343,2.388,2.302,2.793,2.877c0.078,0.091,0.118,0.215,0.118,0.373c0,0.135-0.044,0.265-0.136,0.389
	c-0.169,0.237-0.457,0.612-0.863,1.126c-0.405,0.513-0.71,0.911-0.913,1.194c0.292,0.563,0.524,1.116,0.693,1.658l3.098,0.475
	c0.146,0.022,0.266,0.093,0.354,0.211C26.953,11.876,27,12.008,27,12.154L27,12.154z"/>
</svg>
