<?xml version="1.0" encoding="utf-8"?>
<!-- Generator: Adobe Illustrator 15.0.2, SVG Export Plug-In . SVG Version: 6.00 Build 0)  -->
<!DOCTYPE svg PUBLIC "-//W3C//DTD SVG 1.1//EN" "http://www.w3.org/Graphics/SVG/1.1/DTD/svg11.dtd">
<svg version="1.1" id="Layer_1" xmlns="http://www.w3.org/2000/svg" xmlns:xlink="http://www.w3.org/1999/xlink" x="0px" y="0px"
	 width="28px" height="28px" viewBox="0 0 28 28" enable-background="new 0 0 28 28" xml:space="preserve">
<path d="M22.728,17.272c0,0.295-0.109,0.551-0.324,0.768l-7.637,7.636C14.551,25.892,14.295,26,14,26s-0.551-0.108-0.767-0.324
	L5.597,18.04c-0.216-0.217-0.324-0.473-0.324-0.768s0.108-0.551,0.324-0.767c0.216-0.216,0.472-0.324,0.767-0.324h15.273
	c0.295,0,0.551,0.108,0.767,0.324C22.618,16.722,22.728,16.978,22.728,17.272z M22.728,10.727c0,0.295-0.109,0.551-0.324,0.767
	c-0.216,0.216-0.472,0.324-0.767,0.324H6.364c-0.295,0-0.551-0.108-0.767-0.324c-0.216-0.216-0.324-0.472-0.324-0.767
	c0-0.295,0.108-0.551,0.324-0.767l7.636-7.637C13.449,2.108,13.705,2,14,2s0.551,0.108,0.767,0.324l7.637,7.637
	C22.618,10.176,22.728,10.432,22.728,10.727z"/>
</svg>
