<?xml version="1.0" encoding="utf-8"?>
<!-- Generator: Adobe Illustrator 15.0.2, SVG Export Plug-In . SVG Version: 6.00 Build 0)  -->
<!DOCTYPE svg PUBLIC "-//W3C//DTD SVG 1.1//EN" "http://www.w3.org/Graphics/SVG/1.1/DTD/svg11.dtd">
<svg version="1.1" id="Layer_1" xmlns="http://www.w3.org/2000/svg" xmlns:xlink="http://www.w3.org/1999/xlink" x="0px" y="0px"
	 width="28px" height="28px" viewBox="-1 0 28 28" enable-background="new -1 0 28 28" xml:space="preserve">
<path d="M26,11.211c0,0.229-0.137,0.479-0.406,0.75l-5.672,5.531l1.344,7.812c0.012,0.071,0.018,0.176,0.018,0.312
	c0,0.219-0.057,0.401-0.164,0.555c-0.109,0.149-0.27,0.228-0.479,0.228c-0.197,0-0.406-0.062-0.625-0.188L13,22.523L5.984,26.21
	c-0.229,0.125-0.438,0.188-0.625,0.188c-0.219,0-0.382-0.076-0.492-0.228c-0.109-0.151-0.164-0.336-0.164-0.555
	c0-0.062,0.01-0.168,0.031-0.312l1.344-7.812l-5.688-5.531C0.13,11.68,0,11.43,0,11.211c0-0.385,0.292-0.625,0.875-0.718
	l7.843-1.141l3.516-7.108C12.433,1.816,12.688,1.602,13,1.602s0.568,0.214,0.765,0.641l3.518,7.108l7.844,1.141
	C25.709,10.586,26,10.826,26,11.211L26,11.211z"/>
</svg>
