<?xml version="1.0" encoding="utf-8"?>
<!-- Generator: Adobe Illustrator 15.0.2, SVG Export Plug-In . SVG Version: 6.00 Build 0)  -->
<!DOCTYPE svg PUBLIC "-//W3C//DTD SVG 1.1//EN" "http://www.w3.org/Graphics/SVG/1.1/DTD/svg11.dtd">
<svg version="1.1" id="Layer_1" xmlns="http://www.w3.org/2000/svg" xmlns:xlink="http://www.w3.org/1999/xlink" x="0px" y="0px"
	 width="28px" height="28px" viewBox="0 0 28 28" enable-background="new 0 0 28 28" xml:space="preserve">
<path d="M8,20.5v3c0,0.416-0.146,0.771-0.438,1.062S6.916,25,6.5,25h-5c-0.417,0-0.771-0.146-1.062-0.438
	C0.146,24.27,0,23.916,0,23.5v-3c0-0.416,0.146-0.771,0.438-1.062S1.084,19,1.5,19h5c0.417,0,0.771,0.146,1.062,0.438
	C7.854,19.73,8,20.084,8,20.5z M8,12.5v3c0,0.416-0.146,0.771-0.438,1.062S6.916,17,6.5,17h-5c-0.417,0-0.771-0.146-1.062-0.438
	C0.146,16.27,0,15.916,0,15.5v-3c0-0.417,0.146-0.771,0.438-1.062S1.084,11,1.5,11h5c0.417,0,0.771,0.146,1.062,0.438
	S8,12.084,8,12.5z M28,20.5v3c0,0.416-0.146,0.771-0.438,1.062C27.27,24.854,26.916,25,26.5,25h-15
	c-0.417,0-0.771-0.146-1.062-0.438C10.146,24.27,10,23.916,10,23.5v-3c0-0.416,0.146-0.771,0.438-1.062S11.084,19,11.5,19h15
	c0.416,0,0.771,0.146,1.062,0.438C27.854,19.73,28,20.084,28,20.5z M8,4.5v3c0,0.417-0.146,0.771-0.438,1.062S6.916,9,6.5,9h-5
	C1.083,9,0.729,8.854,0.438,8.562S0,7.916,0,7.5v-3c0-0.417,0.146-0.771,0.438-1.062S1.084,3,1.5,3h5
	c0.417,0,0.771,0.146,1.062,0.438S8,4.084,8,4.5z M28,12.5v3c0,0.416-0.146,0.771-0.438,1.062C27.27,16.854,26.916,17,26.5,17h-15
	c-0.417,0-0.771-0.146-1.062-0.438C10.146,16.27,10,15.916,10,15.5v-3c0-0.417,0.146-0.771,0.438-1.062S11.084,11,11.5,11h15
	c0.416,0,0.771,0.146,1.062,0.438S28,12.084,28,12.5z M28,4.5v3c0,0.417-0.146,0.771-0.438,1.062C27.27,8.854,26.916,9,26.5,9h-15
	c-0.417,0-0.771-0.146-1.062-0.438S10,7.916,10,7.5v-3c0-0.417,0.146-0.771,0.438-1.062S11.084,3,11.5,3h15
	c0.416,0,0.771,0.146,1.062,0.438S28,4.084,28,4.5z"/>
</svg>
