<?xml version="1.0" encoding="utf-8"?>
<!-- Generator: Adobe Illustrator 15.0.2, SVG Export Plug-In . SVG Version: 6.00 Build 0)  -->
<!DOCTYPE svg PUBLIC "-//W3C//DTD SVG 1.1//EN" "http://www.w3.org/Graphics/SVG/1.1/DTD/svg11.dtd">
<svg version="1.1" id="Layer_1" xmlns="http://www.w3.org/2000/svg" xmlns:xlink="http://www.w3.org/1999/xlink" x="0px" y="0px"
	 width="28px" height="28px" viewBox="0 0 28 28" enable-background="new 0 0 28 28" xml:space="preserve">
<path d="M20.448,17.826c0-0.295-0.107-0.549-0.321-0.762L17.063,14l3.063-3.064c0.214-0.214,0.321-0.468,0.321-0.762
	c0-0.305-0.107-0.564-0.321-0.779l-1.523-1.523C18.389,7.658,18.13,7.55,17.825,7.55c-0.295,0-0.549,0.107-0.762,0.322l-3.064,3.064
	l-3.064-3.064c-0.214-0.214-0.468-0.322-0.762-0.322c-0.305,0-0.564,0.107-0.779,0.322L7.871,9.396
	C7.657,9.61,7.549,9.87,7.549,10.174c0,0.293,0.107,0.547,0.321,0.762L10.935,14l-3.064,3.064c-0.214,0.213-0.321,0.467-0.321,0.762
	c0,0.305,0.107,0.563,0.321,0.778l1.524,1.523c0.215,0.214,0.474,0.322,0.779,0.322c0.293,0,0.547-0.108,0.762-0.322l3.064-3.063
	l3.064,3.063c0.213,0.214,0.467,0.322,0.762,0.322c0.305,0,0.563-0.108,0.778-0.322l1.523-1.523
	C20.341,18.39,20.448,18.131,20.448,17.826z M27,14c0,2.359-0.581,4.535-1.743,6.526s-2.738,3.567-4.732,4.731
	C18.533,26.419,16.358,27.001,14,27s-4.533-0.582-6.525-1.742c-1.992-1.162-3.569-2.739-4.731-4.731C1.581,18.532,1,16.357,1,14
	s0.581-4.533,1.743-6.525s2.739-3.57,4.731-4.731C9.467,1.582,11.642,1,14,1s4.533,0.581,6.524,1.743
	c1.994,1.163,3.57,2.74,4.732,4.731S27,11.641,27,14z"/>
</svg>
