<?xml version="1.0" encoding="utf-8"?>
<!-- Generator: Adobe Illustrator 15.0.2, SVG Export Plug-In . SVG Version: 6.00 Build 0)  -->
<!DOCTYPE svg PUBLIC "-//W3C//DTD SVG 1.1//EN" "http://www.w3.org/Graphics/SVG/1.1/DTD/svg11.dtd">
<svg version="1.1" id="Layer_1" xmlns="http://www.w3.org/2000/svg" xmlns:xlink="http://www.w3.org/1999/xlink" x="0px" y="0px"
	 width="28px" height="28px" viewBox="0 0 28 28" enable-background="new 0 0 28 28" xml:space="preserve">
<path d="M10.75,22.125V10.208c0-0.158-0.051-0.288-0.153-0.389c-0.101-0.101-0.231-0.152-0.389-0.152H9.125
	c-0.158,0-0.288,0.051-0.389,0.153s-0.152,0.231-0.153,0.389v11.917c0,0.159,0.051,0.288,0.153,0.39s0.231,0.152,0.389,0.152h1.083
	c0.158,0,0.288-0.051,0.389-0.152C10.698,22.415,10.75,22.283,10.75,22.125z M15.083,22.125V10.208c0-0.158-0.051-0.288-0.151-0.389
	c-0.102-0.101-0.231-0.152-0.39-0.153h-1.083c-0.158,0-0.288,0.051-0.389,0.153s-0.152,0.231-0.153,0.389v11.917
	c0,0.159,0.051,0.288,0.153,0.391c0.102,0.101,0.231,0.151,0.389,0.151h1.083c0.158,0,0.287-0.051,0.39-0.151
	C15.031,22.413,15.083,22.283,15.083,22.125z M19.417,22.125V10.208c0-0.158-0.051-0.288-0.151-0.389
	c-0.102-0.101-0.231-0.152-0.391-0.153h-1.083c-0.159,0-0.288,0.051-0.39,0.153s-0.152,0.231-0.152,0.389v11.917
	c0,0.159,0.051,0.288,0.152,0.391c0.102,0.101,0.23,0.151,0.39,0.151h1.083c0.159,0,0.288-0.051,0.391-0.151
	C19.365,22.413,19.417,22.283,19.417,22.125z M10.208,5.333h7.584l-0.812-1.98c-0.078-0.102-0.176-0.164-0.289-0.186h-5.366
	c-0.113,0.021-0.208,0.084-0.288,0.186L10.208,5.333z M25.917,5.875v1.083c0,0.158-0.051,0.288-0.151,0.389
	c-0.103,0.101-0.231,0.152-0.391,0.153H23.75v16.047c0,0.938-0.264,1.746-0.795,2.43C22.426,26.658,21.787,27,21.042,27H6.958
	c-0.745,0-1.382-0.331-1.913-0.991C4.514,25.35,4.249,24.55,4.25,23.614V7.499H2.625c-0.158,0-0.288-0.051-0.389-0.153
	S2.084,7.115,2.083,6.957V5.874c0-0.158,0.051-0.288,0.153-0.389s0.231-0.152,0.389-0.153h5.23L9.04,2.505
	c0.169-0.417,0.474-0.772,0.915-1.066C10.396,1.146,10.841,1,11.292,1h5.417c0.451,0,0.896,0.146,1.338,0.44
	s0.745,0.649,0.914,1.066l1.186,2.827h5.229c0.159,0,0.288,0.051,0.39,0.153C25.865,5.586,25.917,5.716,25.917,5.875L25.917,5.875z"
	/>
</svg>
